<svg version="1.1" class="site-nav__logo" id="Calque_1" xmlns="http://www.w3.org/2000/svg" xmlns:xlink="http://www.w3.org/1999/xlink" x="0px" y="0px"
	 width="130px" height="96px" viewBox="0 0 304.537 224.675" enable-background="new 0 0 304.537 224.675"
	 xml:space="preserve">
<path fill="#C2725D" d="M255.441,60.927h-55.559h-4.24V12.506V0h-34.978v12.154C148.596,4.47,134.284,0,118.917,0
	C75.921,0,41.065,34.855,41.065,77.852c0,42.997,34.855,77.853,77.852,77.853c15.366,0,29.679-4.471,41.747-12.154v13.283h34.978
	v-15.891c12.518,8.594,27.67,13.633,44.002,13.633c5.412,0,10.695-0.555,15.797-1.605v-34.025
	c-5.191,2.232-10.914,3.475-16.924,3.475c-17.449,0-32.449-10.428-39.145-25.386h56.068V60.927z M117.788,123.548
	c-23.678,0-42.875-19.196-42.875-42.875s19.197-42.875,42.875-42.875c16.557,0,30.912,9.39,38.056,23.129H98.608v36.106h58.817
	C150.994,112.595,135.675,123.548,117.788,123.548z"/>
<text transform="matrix(1 0 0 1 0 221.3496)" fill="#80A2A9" font-family="'RobotoCondensed-Bold'" font-size="70.0346">Centre Alfa</text>
<path fill="#68555B" d="M126.754,123.286c-23.713,0-42.936-19.224-42.936-42.936c0-23.712,19.223-42.937,42.936-42.937
	c16.579,0,30.955,10.034,38.109,23.793h-57.318v35.527h58.901C160.007,112.318,144.666,123.286,126.754,123.286z"/>
</svg>
